<svg width="150" height="40" viewBox="0 0 150 40" fill="none" xmlns="http://www.w3.org/2000/svg">
  <g>
    <!-- Minimal upward trend icon -->
    <rect x="8" y="20" width="3.5" height="12" rx="1.75" fill="#F1F5F9"/>
    <rect x="16.5" y="14" width="3.5" height="18" rx="1.75" fill="#F1F5F9"/>
    <rect x="25" y="8" width="3.5" height="24" rx="1.75" fill="#F1F5F9"/>
    <!-- Simple circle for balance -->
    <circle cx="30.5" cy="8" r="2" fill="#F1F5F9"/>
    <!-- Trady text -->
    <text x="40" y="29" font-family="'Segoe UI', 'Inter', 'Arial', sans-serif" font-size="24" font-weight="600" fill="#F1F5F9" letter-spacing="1">Trady</text>
  </g>
</svg> width="128" height="32" viewBox="0 0 128 32" fill="none" xmlns="http://www.w3.org/2000/svg">
<g clip-path="url(#clip0_101_3)">
<path d="M16 0C7.16344 0 0 7.16344 0 16C0 24.8366 7.16344 32 16 32C24.8366 32 32 24.8366 32 16C32 7.16344 24.8366 0 16 0ZM22.3137 10.9373H18.875V22.8748H15.5V10.9373H12.0625V8.2498H22.3137V10.9373Z" fill="#F1F5F9"/>
<path d="M49.3438 22.8748H45.8125V8.2498H49.3438V22.8748Z" fill="#F1F5F9"/>
<path d="M62.2812 22.8748H58.75V8.2498H62.2812V22.8748Z" fill="#F1F5F9"/>
<path d="M75.2188 22.8748H71.6875V8.2498H75.2188V22.8748Z" fill="#F1F5F9"/>
<path d="M95.875 22.8748H80.5V19.5623H85.0938V11.5623C85.0938 10.5311 84.2812 9.7186 83.25 9.7186H80.5V6.3748H83.25C86.1562 6.3748 88.5312 8.7186 88.5312 11.5623V19.5623H95.875V22.8748Z" fill="#F1F5F9"/>
<path d="M116.531 22.8748H101.156V19.5623H105.75V11.5623C105.75 10.5311 104.938 9.7186 103.906 9.7186H101.156V6.3748H103.906C106.812 6.3748 109.188 8.7186 109.188 11.5623V19.5623H116.531V22.8748Z" fill="#F1F5F9"/>
<path d="M125.438 8.2498L120.562 22.8748H117.125L122 8.2498H125.438Z" fill="#F1F5F9"/>
</g>
<defs>
<clipPath id="clip0_101_3">
<rect width="128" height="32" fill="white"/>
</clipPath>
</defs>
</svg>
